<svg width="12" height="24" viewBox="0 0 12 24" fill="none" xmlns="http://www.w3.org/2000/svg">
<path fill-rule="evenodd" clip-rule="evenodd" d="M9.229 12.95C9.083 12.857 9 12.724 9 12.581V10.5C9 10.381 8.957 10.266 8.88 10.175L8.158 9.33L8.88 8.485C9.04 8.297 9.04 8.02 8.879 7.834L8.159 6.999L8.88 6.155C9.04 5.967 9.04 5.692 8.88 5.505L8.159 4.661L8.879 3.826C8.957 3.735 9 3.62 9 3.5V2.5C9 2.348 8.931 2.204 8.812 2.109L6.312 0.109C6.128 -0.0369997 5.871 -0.0369997 5.687 0.109L3.187 2.109C3.069 2.204 3 2.348 3 2.5V12.584C3 12.725 2.918 12.857 2.775 12.948C1.037 14.05 0 15.938 0 18C0 21.309 2.691 24 5.999 24C6.425 24 6.857 23.955 7.283 23.866C9.605 23.385 11.458 21.489 11.892 19.15C12.349 16.7 11.303 14.267 9.229 12.95ZM2.428 19.231C2.52 19.087 2.679 19 2.85 19H9.15C9.321 19 9.481 19.088 9.573 19.232C9.665 19.376 9.676 19.557 9.604 19.712C8.954 21.102 7.54 22 6 22C4.46 22 3.046 21.102 2.397 19.711C2.324 19.556 2.336 19.375 2.428 19.231Z" fill="url(#paint0_linear_1_15)"/>
<defs>
<linearGradient id="paint0_linear_1_15" x1="5.99897" y1="-0.000499725" x2="5.99897" y2="24" gradientUnits="userSpaceOnUse">
<stop stop-color="#69C1FA"/>
<stop offset="1" stop-color="#CF4DF3"/>
</linearGradient>
</defs>
</svg>
